<svg width="1200" height="520" viewBox="0 0 1200 520" fill="none" xmlns="http://www.w3.org/2000/svg" role="img" aria-labelledby="title desc">
  <title id="title">PingBar README preview</title>
  <desc id="desc">A polished preview of PingBar showing a macOS menu bar signal and network evidence cards.</desc>
  <rect width="1200" height="520" rx="28" fill="#F7F7F2"/>
  <rect x="1" y="1" width="1198" height="518" rx="27" stroke="#D8D8CF" stroke-width="2"/>

  <rect x="64" y="56" width="1072" height="52" rx="18" fill="#151716"/>
  <circle cx="94" cy="82" r="6" fill="#31C27C"/>
  <text x="116" y="88" font-family="SFMono-Regular, Menlo, Consolas, monospace" font-size="24" fill="#F1F4EF">PingBar</text>
  <rect x="830" y="67" width="242" height="30" rx="15" fill="#242826"/>
  <circle cx="854" cy="82" r="5" fill="#31C27C"/>
  <text x="872" y="88" font-family="SFMono-Regular, Menlo, Consolas, monospace" font-size="18" fill="#F1F4EF">up 128K  down 4.8M</text>

  <g filter="url(#shadow)">
    <rect x="116" y="144" width="968" height="312" rx="22" fill="#FFFFFF"/>
    <rect x="116.5" y="144.5" width="967" height="311" rx="21.5" stroke="#DDDDD6"/>
  </g>

  <rect x="148" y="176" width="44" height="44" rx="12" fill="#E9F8F0"/>
  <path d="M158 199C165 186 176 186 183 199C186 205 189 205 192 199" stroke="#149D63" stroke-width="4" stroke-linecap="round"/>
  <text x="210" y="198" font-family="-apple-system, BlinkMacSystemFont, Segoe UI, sans-serif" font-size="24" font-weight="700" fill="#151716">Network OK</text>
  <text x="210" y="222" font-family="-apple-system, BlinkMacSystemFont, Segoe UI, sans-serif" font-size="15" fill="#6F746F">Wi-Fi evidence, route checks, latency, speed, and process traffic.</text>

  <rect x="832" y="176" width="184" height="34" rx="17" fill="#F1F3F0"/>
  <text x="854" y="198" font-family="SFMono-Regular, Menlo, Consolas, monospace" font-size="15" fill="#343834">en0 5 GHz</text>

  <line x1="148" y1="248" x2="1052" y2="248" stroke="#E6E6DE"/>

  <g>
    <text x="148" y="286" font-family="-apple-system, BlinkMacSystemFont, Segoe UI, sans-serif" font-size="15" font-weight="700" fill="#2A2D2A">Throughput</text>
    <rect x="148" y="306" width="272" height="86" rx="14" fill="#F8FAF7" stroke="#E3E6DF"/>
    <path d="M166 360C194 335 210 370 238 342C267 313 291 362 318 330C347 296 370 331 402 312" stroke="#149D63" stroke-width="4" stroke-linecap="round"/>
    <text x="166" y="336" font-family="SFMono-Regular, Menlo, Consolas, monospace" font-size="20" fill="#151716">down 238.4 Mbps</text>
    <text x="166" y="376" font-family="SFMono-Regular, Menlo, Consolas, monospace" font-size="16" fill="#317CC3">up 31.7 Mbps</text>
  </g>

  <g>
    <text x="464" y="286" font-family="-apple-system, BlinkMacSystemFont, Segoe UI, sans-serif" font-size="15" font-weight="700" fill="#2A2D2A">Latency</text>
    <rect x="464" y="306" width="272" height="86" rx="14" fill="#F8FAF7" stroke="#E3E6DF"/>
    <path d="M482 352L511 348L540 350L569 328L598 334L627 320L656 322L685 318L718 321" stroke="#31C27C" stroke-width="4" stroke-linecap="round"/>
    <path d="M482 371L511 365L540 372L569 360L598 366L627 358L656 363L685 355L718 357" stroke="#F0A33A" stroke-width="4" stroke-linecap="round"/>
    <text x="482" y="336" font-family="SFMono-Regular, Menlo, Consolas, monospace" font-size="20" fill="#151716">gateway 18 ms</text>
    <text x="482" y="378" font-family="SFMono-Regular, Menlo, Consolas, monospace" font-size="16" fill="#6F746F">loss 0%  jitter 3ms</text>
  </g>

  <g>
    <text x="780" y="286" font-family="-apple-system, BlinkMacSystemFont, Segoe UI, sans-serif" font-size="15" font-weight="700" fill="#2A2D2A">Egress</text>
    <rect x="780" y="306" width="272" height="86" rx="14" fill="#F8FAF7" stroke="#E3E6DF"/>
    <circle cx="808" cy="340" r="8" fill="#31C27C"/>
    <text x="828" y="346" font-family="SFMono-Regular, Menlo, Consolas, monospace" font-size="18" fill="#151716">Direct 203.0.113.10</text>
    <circle cx="808" cy="370" r="8" fill="#317CC3"/>
    <text x="828" y="376" font-family="SFMono-Regular, Menlo, Consolas, monospace" font-size="18" fill="#151716">System 198.51.100.20</text>
  </g>

  <text x="148" y="424" font-family="-apple-system, BlinkMacSystemFont, Segoe UI, sans-serif" font-size="15" fill="#6F746F">Copy a diagnostic report when "the network is bad" needs evidence.</text>

  <defs>
    <filter id="shadow" x="96" y="132" width="1008" height="352" filterUnits="userSpaceOnUse" color-interpolation-filters="sRGB">
      <feFlood flood-opacity="0" result="BackgroundImageFix"/>
      <feColorMatrix in="SourceAlpha" type="matrix" values="0 0 0 0 0 0 0 0 0 0 0 0 0 0 0 0 0 0 127 0" result="hardAlpha"/>
      <feOffset dy="8"/>
      <feGaussianBlur stdDeviation="10"/>
      <feComposite in2="hardAlpha" operator="out"/>
      <feColorMatrix type="matrix" values="0 0 0 0 0.08 0 0 0 0 0.09 0 0 0 0 0.08 0 0 0 0.12 0"/>
      <feBlend mode="normal" in2="BackgroundImageFix" result="effect1_dropShadow_1_1"/>
      <feBlend mode="normal" in="SourceGraphic" in2="effect1_dropShadow_1_1" result="shape"/>
    </filter>
  </defs>
</svg>
